<svg xmlns="http://www.w3.org/2000/svg" width="1400" height="900" viewBox="0 0 1400 900" role="img" aria-labelledby="title desc">
  <title id="title">RideFlow governed data mesh architecture</title>
  <desc id="desc">Six RideFlow domains publish contract-governed Bronze, Silver, and Gold data products to a Databricks Unity Catalog lakehouse. LakeLogic provides shared contract execution, quality gates, lineage evidence, and quarantine routing.</desc>
  <defs>
    <linearGradient id="canvas" x1="0" y1="0" x2="1" y2="1">
      <stop offset="0" stop-color="#071014"/>
      <stop offset="0.56" stop-color="#0a171b"/>
      <stop offset="1" stop-color="#071215"/>
    </linearGradient>
    <linearGradient id="lakehouse" x1="0" y1="0" x2="1" y2="0">
      <stop offset="0" stop-color="#0d5f68"/>
      <stop offset="0.5" stop-color="#0a7d86"/>
      <stop offset="1" stop-color="#0d5f68"/>
    </linearGradient>
    <linearGradient id="control" x1="0" y1="0" x2="1" y2="1">
      <stop offset="0" stop-color="#10252a"/>
      <stop offset="1" stop-color="#0b1a1e"/>
    </linearGradient>
    <radialGradient id="glow" cx="50%" cy="50%" r="50%">
      <stop offset="0" stop-color="#18b8bd" stop-opacity="0.2"/>
      <stop offset="1" stop-color="#18b8bd" stop-opacity="0"/>
    </radialGradient>
    <filter id="shadow" x="-20%" y="-20%" width="140%" height="150%">
      <feDropShadow dx="0" dy="12" stdDeviation="18" flood-color="#000" flood-opacity="0.28"/>
    </filter>
    <filter id="softShadow" x="-20%" y="-20%" width="140%" height="150%">
      <feDropShadow dx="0" dy="6" stdDeviation="10" flood-color="#000" flood-opacity="0.2"/>
    </filter>
    <pattern id="grid" width="48" height="48" patternUnits="userSpaceOnUse">
      <path d="M48 0H0V48" fill="none" stroke="#4ad7d1" stroke-opacity="0.035" stroke-width="1"/>
    </pattern>
    <marker id="arrow" markerWidth="9" markerHeight="9" refX="8" refY="4.5" orient="auto">
      <path d="M0 0L9 4.5L0 9Z" fill="#46d3cf"/>
    </marker>
    <marker id="redArrow" markerWidth="9" markerHeight="9" refX="8" refY="4.5" orient="auto">
      <path d="M0 0L9 4.5L0 9Z" fill="#ff6168"/>
    </marker>
    <style>
      .display{font-family:'Aptos Display','Trebuchet MS',sans-serif;font-weight:700;letter-spacing:-0.025em}
      .label{font-family:'Aptos','Trebuchet MS',sans-serif;font-weight:700;letter-spacing:0.12em}
      .body{font-family:'Aptos','Trebuchet MS',sans-serif;font-weight:400}
      .mono{font-family:'Cascadia Code','Courier New',monospace;font-weight:600}
    </style>
  </defs>

  <rect width="1400" height="900" rx="34" fill="url(#canvas)"/>
  <rect width="1400" height="900" rx="34" fill="url(#grid)"/>
  <ellipse cx="695" cy="580" rx="560" ry="340" fill="url(#glow)"/>

  <g transform="translate(66 54)">
    <g aria-label="LakeLogic mark">
      <rect x="0" y="0" width="8" height="38" rx="2" fill="#f6f8f8"/>
      <rect x="0" y="30" width="28" height="8" rx="2" fill="#f6f8f8"/>
      <rect x="42" y="0" width="8" height="38" rx="2" fill="#18a0a8"/>
      <rect x="22" y="0" width="28" height="8" rx="2" fill="#18a0a8"/>
    </g>
    <text x="70" y="29" class="display" font-size="25" fill="#f6f8f8">LakeLogic</text>
  </g>

  <text x="66" y="147" class="label" font-size="14" fill="#51d8d4">REFERENCE ARCHITECTURE / DATABRICKS</text>
  <text x="66" y="197" class="display" font-size="42" fill="#f7f8f8">A governed lakehouse, owned by domains.</text>
  <text x="66" y="232" class="body" font-size="18" fill="#9badb2">Six RideFlow domains publish independent data products. Shared controls keep the mesh coherent.</text>

  <g filter="url(#shadow)">
    <rect x="54" y="270" width="1292" height="310" rx="27" fill="#0a1418" stroke="#2b454b" stroke-width="2"/>
    <rect x="62" y="278" width="1276" height="294" rx="21" fill="#0d1a1e" stroke="#fff" stroke-opacity="0.045"/>
  </g>
  <text x="86" y="313" class="label" font-size="12" fill="#718a90">DOMAIN-OWNED DATA PRODUCTS</text>
  <g transform="translate(1016 294)">
    <text x="0" y="17" class="label" font-size="9" fill="#718a90">MEDALLION KEY</text>
    <circle cx="120" cy="13" r="5" fill="#9a4f20"/>
    <text x="131" y="17" class="body" font-size="11" fill="#c9d5d7">Bronze</text>
    <circle cx="190" cy="13" r="5" fill="#314955"/>
    <text x="201" y="17" class="body" font-size="11" fill="#c9d5d7">Silver</text>
    <circle cx="252" cy="13" r="5" fill="#80621d"/>
    <text x="263" y="17" class="body" font-size="11" fill="#c9d5d7">Gold</text>
  </g>

  <g filter="url(#softShadow)">
    <g transform="translate(82 334)">
      <rect width="390" height="94" rx="15" fill="#102126" stroke="#275058"/>
      <rect x="1" y="1" width="388" height="92" rx="14" fill="none" stroke="#fff" stroke-opacity="0.045"/>
      <circle cx="27" cy="27" r="6" fill="#f4ad54"/>
      <text x="44" y="33" class="display" font-size="20" fill="#f5f7f7">Marketing</text>
      <text x="22" y="58" class="body" font-size="13" fill="#8ea1a6">Google Ads · Meta Ads · GA · HubSpot</text>
      <g transform="translate(237 22)">
        <rect width="42" height="23" rx="11.5" fill="#5d351d"/><text x="21" y="16" text-anchor="middle" class="label" font-size="8" fill="#ffc078">B</text>
        <path d="M48 11.5H61" stroke="#5b7379"/><rect x="67" width="42" height="23" rx="11.5" fill="#253b45"/><text x="88" y="16" text-anchor="middle" class="label" font-size="8" fill="#b7d2dc">S</text>
        <path d="M115 11.5H128" stroke="#5b7379"/><rect x="134" width="42" height="23" rx="11.5" fill="#5b4820"/><text x="155" y="16" text-anchor="middle" class="label" font-size="8" fill="#ffe59a">G</text>
      </g>
    </g>

    <g transform="translate(505 334)">
      <rect width="390" height="94" rx="15" fill="#102126" stroke="#27717a"/>
      <rect x="1" y="1" width="388" height="92" rx="14" fill="none" stroke="#fff" stroke-opacity="0.045"/>
      <circle cx="27" cy="27" r="6" fill="#45d1cc"/>
      <text x="44" y="33" class="display" font-size="20" fill="#f5f7f7">Marketplace</text>
      <text x="22" y="58" class="body" font-size="13" fill="#8ea1a6">RideFlow · trips · riders · drivers</text>
      <g transform="translate(237 22)">
        <rect width="42" height="23" rx="11.5" fill="#5d351d"/><text x="21" y="16" text-anchor="middle" class="label" font-size="8" fill="#ffc078">B</text>
        <path d="M48 11.5H61" stroke="#5b7379"/><rect x="67" width="42" height="23" rx="11.5" fill="#253b45"/><text x="88" y="16" text-anchor="middle" class="label" font-size="8" fill="#b7d2dc">S</text>
        <path d="M115 11.5H128" stroke="#5b7379"/><rect x="134" width="42" height="23" rx="11.5" fill="#5b4820"/><text x="155" y="16" text-anchor="middle" class="label" font-size="8" fill="#ffe59a">G</text>
      </g>
    </g>

    <g transform="translate(928 334)">
      <rect width="390" height="94" rx="15" fill="#102126" stroke="#275058"/>
      <rect x="1" y="1" width="388" height="92" rx="14" fill="none" stroke="#fff" stroke-opacity="0.045"/>
      <circle cx="27" cy="27" r="6" fill="#9d8cff"/>
      <text x="44" y="33" class="display" font-size="20" fill="#f5f7f7">Operations</text>
      <text x="22" y="58" class="body" font-size="13" fill="#8ea1a6">Checkr · Twilio · Zendesk</text>
      <g transform="translate(237 22)">
        <rect width="42" height="23" rx="11.5" fill="#5d351d"/><text x="21" y="16" text-anchor="middle" class="label" font-size="8" fill="#ffc078">B</text>
        <path d="M48 11.5H61" stroke="#5b7379"/><rect x="67" width="42" height="23" rx="11.5" fill="#253b45"/><text x="88" y="16" text-anchor="middle" class="label" font-size="8" fill="#b7d2dc">S</text>
        <path d="M115 11.5H128" stroke="#5b7379"/><rect x="134" width="42" height="23" rx="11.5" fill="#5b4820"/><text x="155" y="16" text-anchor="middle" class="label" font-size="8" fill="#ffe59a">G</text>
      </g>
    </g>

    <g transform="translate(82 452)">
      <rect width="390" height="94" rx="15" fill="#102126" stroke="#275058"/>
      <rect x="1" y="1" width="388" height="92" rx="14" fill="none" stroke="#fff" stroke-opacity="0.045"/>
      <circle cx="27" cy="27" r="6" fill="#ff7a82"/>
      <text x="44" y="33" class="display" font-size="20" fill="#f5f7f7">Payments</text>
      <text x="22" y="58" class="body" font-size="13" fill="#8ea1a6">Stripe · charges · refunds · payouts</text>
      <g transform="translate(237 22)">
        <rect width="42" height="23" rx="11.5" fill="#5d351d"/><text x="21" y="16" text-anchor="middle" class="label" font-size="8" fill="#ffc078">B</text>
        <path d="M48 11.5H61" stroke="#5b7379"/><rect x="67" width="42" height="23" rx="11.5" fill="#253b45"/><text x="88" y="16" text-anchor="middle" class="label" font-size="8" fill="#b7d2dc">S</text>
        <path d="M115 11.5H128" stroke="#5b7379"/><rect x="134" width="42" height="23" rx="11.5" fill="#5b4820"/><text x="155" y="16" text-anchor="middle" class="label" font-size="8" fill="#ffe59a">G</text>
      </g>
    </g>

    <g transform="translate(505 452)">
      <rect width="390" height="94" rx="15" fill="#102126" stroke="#275058"/>
      <rect x="1" y="1" width="388" height="92" rx="14" fill="none" stroke="#fff" stroke-opacity="0.045"/>
      <circle cx="27" cy="27" r="6" fill="#7cb9ff"/>
      <text x="44" y="33" class="display" font-size="20" fill="#f5f7f7">Reference</text>
      <text x="22" y="58" class="body" font-size="13" fill="#8ea1a6">shared lookups · dimensions · codes</text>
      <g transform="translate(237 22)">
        <rect width="42" height="23" rx="11.5" fill="#5d351d"/><text x="21" y="16" text-anchor="middle" class="label" font-size="8" fill="#ffc078">B</text>
        <path d="M48 11.5H61" stroke="#5b7379"/><rect x="67" width="42" height="23" rx="11.5" fill="#253b45"/><text x="88" y="16" text-anchor="middle" class="label" font-size="8" fill="#b7d2dc">S</text>
        <path d="M115 11.5H128" stroke="#5b7379"/><rect x="134" width="42" height="23" rx="11.5" fill="#5b4820"/><text x="155" y="16" text-anchor="middle" class="label" font-size="8" fill="#ffe59a">G</text>
      </g>
    </g>

    <g transform="translate(928 452)">
      <rect width="390" height="94" rx="15" fill="#102126" stroke="#275058"/>
      <rect x="1" y="1" width="388" height="92" rx="14" fill="none" stroke="#fff" stroke-opacity="0.045"/>
      <circle cx="27" cy="27" r="6" fill="#6fe0a7"/>
      <text x="44" y="33" class="display" font-size="20" fill="#f5f7f7">Shared</text>
      <text x="22" y="58" class="body" font-size="13" fill="#8ea1a6">cross-domain reporting · marts</text>
      <g transform="translate(237 22)">
        <rect width="42" height="23" rx="11.5" fill="#5d351d"/><text x="21" y="16" text-anchor="middle" class="label" font-size="8" fill="#ffc078">B</text>
        <path d="M48 11.5H61" stroke="#5b7379"/><rect x="67" width="42" height="23" rx="11.5" fill="#253b45"/><text x="88" y="16" text-anchor="middle" class="label" font-size="8" fill="#b7d2dc">S</text>
        <path d="M115 11.5H128" stroke="#5b7379"/><rect x="134" width="42" height="23" rx="11.5" fill="#5b4820"/><text x="155" y="16" text-anchor="middle" class="label" font-size="8" fill="#ffe59a">G</text>
      </g>
    </g>
  </g>

  <g fill="none" stroke="#46d3cf" stroke-width="2" stroke-opacity="0.7" marker-end="url(#arrow)">
    <path d="M277 580C277 620 455 610 485 646"/>
    <path d="M700 580V642"/>
    <path d="M1123 580C1123 620 945 610 915 646"/>
  </g>

  <g filter="url(#shadow)">
    <rect x="205" y="644" width="990" height="98" rx="24" fill="#071014" stroke="#46d3cf" stroke-opacity="0.6" stroke-width="2"/>
    <rect x="213" y="652" width="974" height="82" rx="18" fill="url(#lakehouse)"/>
  </g>
  <g transform="translate(252 671)">
    <path d="M0 10C0 4.5 11 0 25 0S50 4.5 50 10V36C50 41.5 39 46 25 46S0 41.5 0 36Z" fill="none" stroke="#d8ffff" stroke-width="2"/>
    <path d="M0 10C0 15.5 11 20 25 20S50 15.5 50 10M0 23C0 28.5 11 33 25 33S50 28.5 50 23" fill="none" stroke="#d8ffff" stroke-width="2"/>
  </g>
  <text x="330" y="685" class="label" font-size="11" fill="#a8f0ed">DATABRICKS UNITY CATALOG</text>
  <text x="330" y="717" class="display" font-size="26" fill="#fff">The shared lakehouse substrate</text>
  <g transform="translate(780 669)">
    <rect width="122" height="44" rx="22" fill="#fff" fill-opacity="0.1"/><text x="61" y="27" text-anchor="middle" class="body" font-size="13" fill="#e1ffff">domain schemas</text>
    <rect x="135" width="104" height="44" rx="22" fill="#fff" fill-opacity="0.1"/><text x="187" y="27" text-anchor="middle" class="body" font-size="13" fill="#e1ffff">Delta tables</text>
    <rect x="252" width="104" height="44" rx="22" fill="#fff" fill-opacity="0.1"/><text x="304" y="27" text-anchor="middle" class="body" font-size="13" fill="#e1ffff">UC Volumes</text>
  </g>

  <path d="M700 742V778" stroke="#46d3cf" stroke-width="2" marker-end="url(#arrow)"/>

  <g filter="url(#softShadow)">
    <rect x="205" y="782" width="760" height="76" rx="19" fill="url(#control)" stroke="#2d5158"/>
    <rect x="213" y="790" width="744" height="60" rx="14" fill="none" stroke="#fff" stroke-opacity="0.045"/>
  </g>
  <text x="236" y="813" class="label" font-size="10" fill="#4fd7d2">LAKELOGIC OSS CONTROL PLANE</text>
  <text x="236" y="840" class="display" font-size="21" fill="#f7f8f8">Contracts as code</text>
  <g transform="translate(468 801)">
    <rect width="113" height="35" rx="17.5" fill="#163238"/><text x="56.5" y="22" text-anchor="middle" class="body" font-size="12" fill="#b9d5d8">quality gates</text>
    <rect x="125" width="113" height="35" rx="17.5" fill="#163238"/><text x="181.5" y="22" text-anchor="middle" class="body" font-size="12" fill="#b9d5d8">lineage evidence</text>
    <rect x="250" width="113" height="35" rx="17.5" fill="#163238"/><text x="306.5" y="22" text-anchor="middle" class="body" font-size="12" fill="#b9d5d8">run logs</text>
    <rect x="375" width="113" height="35" rx="17.5" fill="#163238"/><text x="431.5" y="22" text-anchor="middle" class="body" font-size="12" fill="#b9d5d8">DAG execution</text>
  </g>

  <path d="M965 820H1003" stroke="#ff6168" stroke-width="2" marker-end="url(#redArrow)"/>
  <g filter="url(#softShadow)">
    <rect x="1010" y="782" width="185" height="76" rx="19" fill="#28171a" stroke="#ff6168" stroke-opacity="0.8"/>
    <rect x="1018" y="790" width="169" height="60" rx="14" fill="none" stroke="#fff" stroke-opacity="0.045"/>
  </g>
  <text x="1037" y="812" class="label" font-size="9" fill="#ff8c91">FAILURE PATH</text>
  <text x="1037" y="840" class="display" font-size="20" fill="#fff">Quarantine</text>

  <text x="1335" y="880" text-anchor="end" class="mono" font-size="11" fill="#547078">DOMAIN AUTONOMY / SHARED CONTROL</text>
</svg>
